<svg id="Layer_1" data-name="Layer 1" xmlns="http://www.w3.org/2000/svg" viewBox="0 0 564.11 110.89"><defs><style>.cls-1{fill:#ca1c2a;}.cls-2{fill:#fff;}</style></defs><title>logo</title><path class="cls-1" d="M77.44,73v.12A25.24,25.24,0,0,1,73.1,87.92a26.81,26.81,0,0,1-12.47,9.37,52.84,52.84,0,0,1-19.21,3.14l-7.09,0-6.09-1.23a51.4,51.4,0,0,1-11.7-3.8A49.93,49.93,0,0,1,6.37,89l-1.13-.91L15.31,76.38l1.06.87A36.5,36.5,0,0,0,27.8,83.66,42.09,42.09,0,0,0,41.42,85.8c6.52,0,11.61-1.13,15.13-3.38a10,10,0,0,0,5-9,9.08,9.08,0,0,0-2.18-6.53,14.22,14.22,0,0,0-6-3.69,75.43,75.43,0,0,0-10.27-2.38l-.19-.05a2.89,2.89,0,0,1-.74-.09l-.91-.17A107.4,107.4,0,0,1,25.65,57a23.07,23.07,0,0,1-10.8-7.53c-3-3.66-4.53-8.89-4.53-15.52a26.53,26.53,0,0,1,4.16-15A25.86,25.86,0,0,1,26.55,9.41,49.21,49.21,0,0,1,45.18,6.22,49.38,49.38,0,0,1,55.42,7.3a52.67,52.67,0,0,1,9.93,3.2A58.22,58.22,0,0,1,75,15.83l1.21.83L66.94,28.89l-1.1-.78a44,44,0,0,0-10.4-5.46,31,31,0,0,0-10.26-1.8C39.05,20.85,34.27,22,31,24.27a10.44,10.44,0,0,0-4.74,9.22,8.26,8.26,0,0,0,2.32,6.32,15.69,15.69,0,0,0,6.32,3.59A109.81,109.81,0,0,0,46.14,46l.41.07c.22,0,.42.07.63.12l.61.11c.27,0,.52.08.75.13a82.91,82.91,0,0,1,14.56,4,23.65,23.65,0,0,1,10.2,7.82C76.05,61.86,77.44,66.82,77.44,73Z"/><path class="cls-1" d="M148.7,32.77V99.51h-16V93.88a22,22,0,0,1-3.64,3.1,21.23,21.23,0,0,1-12.27,3.45c-7.82,0-14-2.45-18.26-7.27S92.14,81.61,92.14,73V32.77h16V73c0,4.07,1.08,7.23,3.2,9.39s5.14,3.25,9.15,3.25,7-1,9.1-2.9,3.11-4.62,3.11-8.26V32.77Z"/><path class="cls-2" d="M325.17,50.86c-6.28-4.73-14.3-5.44-14.3-5.44a17.82,17.82,0,0,0,8.55-15c.29-10.71-9.05-16.52-13.4-18.59s-9.64-3.11-15.92-3.11H265.57V101h36.84c5.77,0,21.57,0,28.31-12.25,2.2-4,3.51-14.11,3.31-18.9C333.59,59.6,328.53,53.39,325.17,50.86ZM303.64,86.59H281.52V55.15h22c6.11,0,14.66,4.36,14.66,15.72S311.67,86.6,303.64,86.59ZM281.52,23.13h6.2c5.16,0,14.76,1.3,15.19,9S292.38,41,287.87,41h-6.35Z"/><path class="cls-2" d="M400.06,45a21.61,21.61,0,0,0-9.69-8.69,35,35,0,0,0-14.93-2.93A39.77,39.77,0,0,0,361,35.9a26.8,26.8,0,0,0-10.63,7.19l-1.07,1.22L361.14,52l.78-.54a22.32,22.32,0,0,1,6.44-3.07,25.6,25.6,0,0,1,7.47-1.11c3.92,0,7,1,9,3.07S388,55.28,388,59.11v1.31H370.84c-7.91,0-13.95,1.7-17.95,5.07s-6.15,8.57-6.15,15.3a24.1,24.1,0,0,0,1.68,9.31,16.5,16.5,0,0,0,5,6.66c4.34,3.45,10.9,5.2,19.48,5.2a33.38,33.38,0,0,0,7.93-.87,20.74,20.74,0,0,0,6.36-2.68q.39-.25.78-.54V101h15.38V58.55A26.57,26.57,0,0,0,400.06,45ZM374.34,88.93c-4.31,0-7.53-.7-9.55-2.09s-2.79-3.27-2.79-6c0-2.59.67-4.43,2.07-5.62s3.74-1.85,6.83-1.85H388V84c0,1-.3,2.45-2.86,3.51C382.81,88.45,379.19,88.93,374.34,88.93Z"/><path class="cls-2" d="M477.54,60.83V101h-16V60.89c0-4.11-1.1-7.3-3.28-9.48s-5.34-3.28-9.38-3.28-7,1-9.07,2.89-3.08,4.58-3.08,8.15V101h-16V34.3h16v6.26a23.13,23.13,0,0,1,4.63-3.83,22,22,0,0,1,11.86-3.35c7.69,0,13.75,2.44,18,7.28S477.54,52.23,477.54,60.83Z"/><polygon class="cls-2" points="558.01 101.04 540.27 101.04 521.11 70.92 510.86 81.88 510.86 101.04 494.83 101.04 494.83 8.68 510.86 8.68 510.86 63.01 535.92 34.3 555.35 34.3 531.36 59.96 558.01 101.04"/><circle cx="206.63" cy="59.35" r="46.06"/><circle class="cls-1" cx="206.63" cy="59.35" r="46.06"/><path class="cls-2" d="M206.63,20.08a39.16,39.16,0,0,0-28.79,12.58,39.26,39.26,0,0,1,53.57,57.15,39.27,39.27,0,0,0-24.78-69.73Z"/></svg>